# xmcd
#
# Track frame offsets: 
#        150
#        11866
#        30168
#        41775
#        55516
#        72421
#        87565
#        98904
#        113456
#        130659
#        144445
#        164368
#        185549
#        202220
#        221965
#        237595
#
# Disc length: 3397 seconds
#
# Revision: 7
# Processed by: cddbd v1.5.2PL0 Copyright (c) Steve Scherf et al.
# Submitted via: ExactAudioCopyFreeDBPlugin 1.0
#
DISCID=e80d4310
DTITLE=Paul McCartney - Kisses On The Bottom
DYEAR=2012
DGENRE=Jazz
TTITLE0=I'm Gonna Sit Right Down and Write Myself a Letter
TTITLE1=Home (When Shadows Fall)
TTITLE2=It's Only a Paper Moon
TTITLE3=More I Cannot Wish You
TTITLE4=The Glory of Love
TTITLE5=We Three
TTITLE6=Ac-Cent-Tchu-Ate the Positive
TTITLE7=My Valentine
TTITLE8=Always
TTITLE9=My Very Good Friend the Milkman
TTITLE10=Bye Bye Blackbird
TTITLE11=Get Yourself Another Fool
TTITLE12=The Inchworm
TTITLE13=Only Our Hearts
TTITLE14=Baby's Request
TTITLE15=My One And Only Love
EXTD=
EXTT0=
EXTT1=
EXTT2=
EXTT3=
EXTT4=
EXTT5=
EXTT6=
EXTT7=
EXTT8=
EXTT9=
EXTT10=
EXTT11=
EXTT12=
EXTT13=
EXTT14=
EXTT15=
PLAYORDER=
